<svg width="24" height="24" viewBox="0 0 24 24" fill="none" xmlns="http://www.w3.org/2000/svg">
<path fill-rule="evenodd" clip-rule="evenodd" d="M12 22C17.5228 22 22 17.5228 22 12C22 6.47715 17.5228 2 12 2C6.47715 2 2 6.47715 2 12C2 17.5228 6.47715 22 12 22ZM7.29537 11.2745C7.68919 10.8885 8.3277 10.8885 8.72153 11.2745L10.8608 13.1464L15.2785 8.12282C15.6723 7.73684 16.3108 7.73684 16.7046 8.12282C17.0985 8.5088 17.0985 9.13461 16.7046 9.52059L11.1512 15.8364C10.9934 16.0158 10.7173 16.0261 10.5466 15.8588L7.29537 12.6722C6.90154 12.2863 6.90154 11.6605 7.29537 11.2745Z" fill="white"/>
</svg>
