<svg width="24" height="24" viewBox="0 0 24 24" fill="none" xmlns="http://www.w3.org/2000/svg">
<path fill-rule="evenodd" clip-rule="evenodd" d="M16 2C19.3137 2 22 4.68629 22 8V16C22 19.3137 19.3137 22 16 22H8C4.68629 22 2 19.3137 2 16V8C2 4.68629 4.68629 2 8 2H16ZM16.7051 8.27832C16.3113 7.90778 15.6721 7.90778 15.2783 8.27832L10.8604 13.1006L8.72168 11.3037C8.32786 10.9332 7.68874 10.9332 7.29492 11.3037C6.9015 11.6742 6.90137 12.2751 7.29492 12.6455L10.4912 15.6523C10.6942 15.8434 11.0148 15.8315 11.2031 15.626L16.7051 9.62012C17.0987 9.24971 17.0984 8.64888 16.7051 8.27832Z" fill="white"/>
</svg>
