<svg width="24" height="24" viewBox="0 0 24 24" fill="none" xmlns="http://www.w3.org/2000/svg">
<path d="M7.40374 7.40379C7.01321 7.79432 7.01321 8.42748 7.40374 8.81801L10.5857 12L7.40373 15.182C7.01321 15.5725 7.01321 16.2057 7.40373 16.5962C7.79426 16.9867 8.42742 16.9867 8.81795 16.5962L11.9999 13.4142L15.1819 16.5962C15.5724 16.9867 16.2056 16.9867 16.5961 16.5962C16.9867 16.2057 16.9867 15.5725 16.5961 15.182L13.4142 12L16.5961 8.81804C16.9866 8.42751 16.9866 7.79435 16.5961 7.40382C16.2056 7.0133 15.5724 7.0133 15.1819 7.40382L11.9999 10.5858L8.81795 7.40379C8.42743 7.01327 7.79426 7.01327 7.40374 7.40379Z" fill="white" fill-opacity="0.55"/>
</svg>
