<svg width="187" height="164" viewBox="0 0 187 164" fill="none" xmlns="http://www.w3.org/2000/svg">
<path d="M7.68408 57.413C14.5817 21.2684 66.3498 -9.2144 103.045 2.57583C64.4436 2.50595 26.872 27.8694 7.68408 57.413Z" fill="#11D16A"/>
<path fill-rule="evenodd" clip-rule="evenodd" d="M109.294 115.281C149.792 96.387 173.064 60.5603 161.273 35.2607C149.481 9.96113 107.092 4.76876 66.5933 23.6632C26.0946 42.5576 2.82277 78.3839 14.6142 103.684C26.4055 128.983 68.7949 134.175 109.294 115.281ZM58.3011 97.8099L69.7497 49.8722C71.2673 43.5182 76.6481 38.8279 83.1468 38.1945L113.909 35.1962C119.851 34.617 124.586 40.0814 123.17 45.8847C122.3 49.4475 119.285 52.0781 115.639 52.4546L92.1594 54.8788C89.5998 55.1431 87.4969 57.0176 86.9403 59.5312C86.0729 63.4488 89.2336 67.0917 93.232 66.7831L98.1779 66.4014C102.919 66.0356 106.615 70.4412 105.433 75.0496C104.719 77.8331 102.366 79.8889 99.5114 80.2204L84.8479 81.924C82.9394 82.1457 81.3595 83.5105 80.862 85.3672L76.3045 102.376C75.2162 106.437 71.5371 109.261 67.3341 109.261C61.332 109.261 56.9062 103.65 58.3011 97.8099Z" fill="#11D16A"/>
<path d="M171.809 33.3928C185.677 63.149 159.887 104.549 114.205 125.861C68.5236 147.174 20.2485 140.329 6.37992 110.573C2.80869 102.911 1.86722 94.4763 3.21794 85.8109C-1.19754 98.8121 -1.21912 111.759 4.08761 123.145C19.1421 155.446 71.3775 162.954 120.759 139.916C170.14 116.878 197.967 72.0161 182.912 39.7149C177.603 28.3226 167.668 20.0141 154.865 15.0422C162.376 19.5776 168.234 25.7245 171.809 33.3928Z" fill="#11D16A"/>
<path d="M175.475 112.421C169.879 144.218 121.853 169.991 90.9052 161.341C127.62 158.233 159.107 133.221 175.475 112.421Z" fill="#11D16A"/>
</svg>
