<svg width="24" height="24" viewBox="0 0 24 24" fill="none" xmlns="http://www.w3.org/2000/svg">
<path d="M4 6.4C4 5.55992 4 5.13988 4.16349 4.81901C4.3073 4.53677 4.53677 4.3073 4.81901 4.16349C5.13988 4 5.55992 4 6.4 4H8.6C9.44008 4 9.86012 4 10.181 4.16349C10.4632 4.3073 10.6927 4.53677 10.8365 4.81901C11 5.13988 11 5.55992 11 6.4V8.6C11 9.44008 11 9.86012 10.8365 10.181C10.6927 10.4632 10.4632 10.6927 10.181 10.8365C9.86012 11 9.44008 11 8.6 11H6.4C5.55992 11 5.13988 11 4.81901 10.8365C4.53677 10.6927 4.3073 10.4632 4.16349 10.181C4 9.86012 4 9.44008 4 8.6V6.4Z" fill="white"/>
<path d="M4 15.4C4 14.5599 4 14.1399 4.16349 13.819C4.3073 13.5368 4.53677 13.3073 4.81901 13.1635C5.13988 13 5.55992 13 6.4 13H8.6C9.44008 13 9.86012 13 10.181 13.1635C10.4632 13.3073 10.6927 13.5368 10.8365 13.819C11 14.1399 11 14.5599 11 15.4V17.6C11 18.4401 11 18.8601 10.8365 19.181C10.6927 19.4632 10.4632 19.6927 10.181 19.8365C9.86012 20 9.44008 20 8.6 20H6.4C5.55992 20 5.13988 20 4.81901 19.8365C4.53677 19.6927 4.3073 19.4632 4.16349 19.181C4 18.8601 4 18.4401 4 17.6V15.4Z" fill="white"/>
<path d="M13 6.4C13 5.55992 13 5.13988 13.1635 4.81901C13.3073 4.53677 13.5368 4.3073 13.819 4.16349C14.1399 4 14.5599 4 15.4 4H17.6C18.4401 4 18.8601 4 19.181 4.16349C19.4632 4.3073 19.6927 4.53677 19.8365 4.81901C20 5.13988 20 5.55992 20 6.4V8.6C20 9.44008 20 9.86012 19.8365 10.181C19.6927 10.4632 19.4632 10.6927 19.181 10.8365C18.8601 11 18.4401 11 17.6 11H15.4C14.5599 11 14.1399 11 13.819 10.8365C13.5368 10.6927 13.3073 10.4632 13.1635 10.181C13 9.86012 13 9.44008 13 8.6V6.4Z" fill="white"/>
<path d="M13 15.4C13 14.5599 13 14.1399 13.1635 13.819C13.3073 13.5368 13.5368 13.3073 13.819 13.1635C14.1399 13 14.5599 13 15.4 13H17.6C18.4401 13 18.8601 13 19.181 13.1635C19.4632 13.3073 19.6927 13.5368 19.8365 13.819C20 14.1399 20 14.5599 20 15.4V17.6C20 18.4401 20 18.8601 19.8365 19.181C19.6927 19.4632 19.4632 19.6927 19.181 19.8365C18.8601 20 18.4401 20 17.6 20H15.4C14.5599 20 14.1399 20 13.819 19.8365C13.5368 19.6927 13.3073 19.4632 13.1635 19.181C13 18.8601 13 18.4401 13 17.6V15.4Z" fill="white"/>
</svg>
