<svg width="24" height="24" viewBox="0 0 24 24" fill="none" xmlns="http://www.w3.org/2000/svg">
<path d="M10.6143 2.00001C11.3105 2.00001 11.8218 1.99329 12.3135 2.11134L12.6192 2.19825C12.9209 2.29631 13.2104 2.42956 13.4815 2.59571L13.6407 2.69923C14.0045 2.95299 14.3312 3.28722 14.7618 3.71778L19.5264 8.48243C20.1168 9.07281 20.6031 9.55722 20.9649 9.98341C21.3343 10.4185 21.632 10.8583 21.8018 11.3809C22.0326 12.091 22.0618 12.8492 21.8887 13.5713L21.8018 13.8789C21.632 14.4013 21.3341 14.8405 20.9649 15.2754C20.6031 15.7016 20.1169 16.1869 19.5264 16.7774L16.7774 19.5264C16.187 20.1168 15.7017 20.603 15.2755 20.9649C14.895 21.2878 14.5112 21.5565 14.0714 21.7324L13.879 21.8018C13.0674 22.0655 12.1925 22.0655 11.3809 21.8018C10.8584 21.6319 10.4185 21.3342 9.98347 20.9649C9.55728 20.603 9.07287 20.1168 8.48249 19.5264L3.71784 14.7617C3.28728 14.3312 2.95305 14.0045 2.69929 13.6406L2.59577 13.4815C2.42962 13.2103 2.29638 12.9209 2.19831 12.6192L2.1114 12.3135C1.99335 11.8217 2.00007 11.3104 2.00007 10.6143V7.86524C2.00007 7.03047 1.99949 6.34425 2.04499 5.78712C2.09148 5.21819 2.19098 4.69578 2.4405 4.20606C2.82788 3.44593 3.44599 2.82782 4.20612 2.44044C4.69584 2.19091 5.21825 2.09141 5.78718 2.04493C6.34431 1.99943 7.03053 2.00001 7.8653 2.00001H10.6143ZM7.25886 5.60645C8.01887 5.68344 8.61237 6.32516 8.61237 7.10548C8.6122 7.93742 7.93748 8.61214 7.10554 8.61231C6.32522 8.61231 5.68351 8.01881 5.60652 7.2588L5.5987 7.10548L5.60652 6.95118C5.68365 6.19132 6.32533 5.59864 7.10554 5.59864L7.25886 5.60645ZM4.00007 10.6143C4.00007 11.4057 4.00674 11.6386 4.05671 11.8467L4.09968 12.001C4.14921 12.1534 4.21691 12.2996 4.30085 12.4365L4.39948 12.5772C4.51788 12.7279 4.71242 12.9282 5.13191 13.3477L9.89655 18.1123C10.5102 18.726 10.9289 19.1428 11.2784 19.4395C11.619 19.7286 11.8275 19.8446 11.9991 19.9004L12.1544 19.9434C12.5191 20.0308 12.9021 20.0169 13.2608 19.9004L13.3975 19.8457C13.5447 19.7762 13.7259 19.6565 13.9815 19.4395C14.331 19.1428 14.7497 18.726 15.3634 18.1123L18.1124 15.3633L18.8946 14.5733C19.1127 14.3482 19.2912 14.1562 19.4395 13.9815C19.7286 13.641 19.8447 13.4323 19.9005 13.2608L19.9434 13.1055C20.0184 12.7928 20.0184 12.467 19.9434 12.1543L19.9005 11.999C19.8447 11.8274 19.7286 11.6189 19.4395 11.2783C19.1429 10.9289 18.7261 10.5102 18.1124 9.89649L13.3477 5.13184C12.9282 4.71236 12.728 4.51782 12.5772 4.39942L12.4366 4.30079C12.2996 4.21685 12.1535 4.14915 12.001 4.09962L11.8468 4.05665C11.6386 4.00668 11.4057 4.00001 10.6143 4.00001H7.8653C6.99744 4.00001 6.40615 4.00077 5.94929 4.03809C5.50435 4.07448 5.27505 4.14077 5.11433 4.22267C4.73045 4.41832 4.41838 4.73038 4.22273 5.11427C4.14083 5.27499 4.07454 5.50429 4.03816 5.94923C4.00083 6.40609 4.00007 6.99738 4.00007 7.86524V10.6143Z" fill="white" fill-opacity="0.55"/>
</svg>
