<svg width="24" height="24" viewBox="0 0 24 24" fill="none" xmlns="http://www.w3.org/2000/svg">
<path fill-rule="evenodd" clip-rule="evenodd" d="M12 16C14.2091 16 16 14.2091 16 12C16 9.79086 14.2091 8 12 8C9.79086 8 8 9.79086 8 12C8 14.2091 9.79086 16 12 16ZM14 12C14 13.1046 13.1046 14 12 14C10.8954 14 10 13.1046 10 12C10 10.8954 10.8954 10 12 10C13.1046 10 14 10.8954 14 12Z" fill="white" fill-opacity="0.55"/>
<path fill-rule="evenodd" clip-rule="evenodd" d="M2.76389 13.2625C1.84551 14.5002 1.74752 16.1657 2.51456 17.5C3.28161 18.8343 4.76683 19.5818 6.29323 19.4019L7.39371 19.2722L8.03022 19.6378L8.47601 20.6771C9.08048 22.0864 10.4665 23 11.9999 23C13.5334 23 14.9194 22.0864 15.5238 20.6771L15.9696 19.6378L16.6062 19.2721L17.7067 19.4019C19.2331 19.5818 20.7183 18.8343 21.4854 17.5C22.2524 16.1657 22.1544 14.5001 21.2361 13.2625L20.5739 12.3702L20.5739 11.6298L21.236 10.7375C22.1544 9.49986 22.2524 7.83431 21.4854 6.50001C20.7183 5.16572 19.2331 4.41818 17.7067 4.59813L16.6062 4.72786L15.9696 4.36223L15.5238 3.32291C14.9194 1.91362 13.5334 1 11.9999 1C10.4665 1 9.08048 1.91362 8.47601 3.32291L8.03022 4.36223L7.39373 4.72784L6.29326 4.5981C4.76686 4.41815 3.28164 5.16569 2.51459 6.49999C1.74754 7.83428 1.84554 9.49984 2.76391 10.7375L3.42602 11.6297L3.426 12.3703L2.76389 13.2625ZM11.9999 3C12.7335 3 13.3966 3.43708 13.6858 4.11129L14.3947 5.76407L16.1836 6.79154L17.9408 6.58437C18.6709 6.4983 19.3826 6.85519 19.7514 7.49679C20.1211 8.13988 20.0749 8.94604 19.6299 9.54568L18.5739 10.9688L18.574 13.0313L19.6299 14.4543C20.0749 15.054 20.1212 15.8601 19.7515 16.5032C19.3826 17.1448 18.6709 17.5017 17.9409 17.4156L16.1836 17.2085L14.3947 18.2359L13.6858 19.8887C13.3966 20.5629 12.7335 21 11.9999 21C11.2663 21 10.6033 20.5629 10.3141 19.8887L9.60517 18.2359L7.81636 17.2085L6.05907 17.4157C5.32901 17.5017 4.61731 17.1448 4.24847 16.5032C3.87878 15.8601 3.92504 15.054 4.37 14.4543L5.42598 13.0313L5.42604 10.9688L4.37002 9.54565C3.92506 8.94601 3.8788 8.13985 4.2485 7.49676C4.61734 6.85516 5.32903 6.49828 6.05909 6.58435L7.8164 6.79152L9.60517 5.76404L10.3141 4.11129C10.6033 3.43708 11.2663 3 11.9999 3Z" fill="white" fill-opacity="0.55"/>
</svg>
