<svg width="24" height="24" viewBox="0 0 24 24" fill="none" xmlns="http://www.w3.org/2000/svg">
<path fill-rule="evenodd" clip-rule="evenodd" d="M11.9979 12C14.7593 12 16.9979 9.76142 16.9979 7C16.9979 4.23858 14.7593 2 11.9979 2C9.2365 2 6.99792 4.23858 6.99792 7C6.99792 9.76142 9.2365 12 11.9979 12ZM11.9979 12C16.0509 12 18.3824 14.8069 19.6035 17.1096C20.2369 18.3039 20.0611 19.5685 19.3785 20.5056C18.7117 21.4209 17.5871 22 16.3335 22H7.66229C6.40869 22 5.28406 21.4209 4.6173 20.5056C3.93471 19.5685 3.75893 18.3039 4.39229 17.1096C5.6134 14.8069 7.94491 12 11.9979 12ZM11.9979 10C13.6548 10 14.9979 8.65685 14.9979 7C14.9979 5.34315 13.6548 4 11.9979 4C10.3411 4 8.99792 5.34315 8.99792 7C8.99792 8.65685 10.3411 10 11.9979 10ZM6.15921 18.0466C7.24263 16.0036 9.04455 14 11.9979 14C14.9512 14 16.7532 16.0036 17.8366 18.0466C18.0909 18.5262 18.0208 18.9726 17.7619 19.328C17.4872 19.7052 16.9747 20 16.3335 20H7.66229C7.02112 20 6.50862 19.7052 6.23387 19.328C5.97496 18.9726 5.90485 18.5262 6.15921 18.0466Z" fill="white" fill-opacity="0.55"/>
</svg>
