<svg width="24" height="24" viewBox="0 0 24 24" fill="none" xmlns="http://www.w3.org/2000/svg">
<path d="M7 1H17C19.7614 1 22 3.23858 22 6V18C22 20.7614 19.7614 23 17 23H7C4.57879 23 2.55953 21.279 2.09873 18.9936C1.98957 18.4522 2.44772 18 3 18C3.55228 18 3.98368 18.46 4.16437 18.9819C4.57105 20.1565 5.68703 21 7 21H17C18.6569 21 20 19.6569 20 18V6C20 4.34315 18.6569 3 17 3H7C5.69378 3 4.58254 3.83481 4.17071 5L4.16431 5.01828C3.98366 5.54018 3.55228 6 3 6C2.44772 6 1.99015 5.54125 2.10002 5C2.56329 2.71776 4.58104 1 7 1Z" fill="white" fill-opacity="0.55"/>
<path d="M1 9C0.447715 9 0 9.44772 0 10C0 10.5523 0.447715 11 1 11H3C3.55228 11 4 10.5523 4 10C4 9.44772 3.55228 9 3 9H1Z" fill="white" fill-opacity="0.55"/>
<path d="M1 13C0.447715 13 0 13.4477 0 14C0 14.5523 0.447715 15 1 15H3C3.55228 15 4 14.5523 4 14C4 13.4477 3.55228 13 3 13H1Z" fill="white" fill-opacity="0.55"/>
<path fill-rule="evenodd" clip-rule="evenodd" d="M12 12C13.6568 12 15 10.6569 15 9C15 7.34315 13.6568 6 12 6C10.3431 6 8.99999 7.34315 8.99999 9C8.99999 10.6569 10.3431 12 12 12ZM11 9C11 8.44772 11.4477 8 12 8C12.5523 8 13 8.44772 13 9C13 9.55228 12.5523 10 12 10C11.4477 10 11 9.55228 11 9Z" fill="white" fill-opacity="0.55"/>
<path fill-rule="evenodd" clip-rule="evenodd" d="M12 12C15.0933 12 16.6949 14.0083 17.4056 15.3523C17.7399 15.9843 17.6618 16.6808 17.2985 17.1991C16.9478 17.6996 16.361 18 15.7228 18H8.27722C7.63895 18 7.05222 17.6996 6.70147 17.1991C6.33822 16.6808 6.26011 15.9843 6.59435 15.3523C7.30505 14.0083 8.90672 12 12 12ZM12 14C13.8547 14 14.8966 15.0472 15.4748 16H8.52513C9.1034 15.0472 10.1452 14 12 14Z" fill="white" fill-opacity="0.55"/>
</svg>
